<?xml version="1.0" encoding="utf-8"?>
<!-- Generator: Adobe Illustrator 23.0.5, SVG Export Plug-In . SVG Version: 6.00 Build 0)  -->
<svg version="1.1" id="Icon" xmlns="http://www.w3.org/2000/svg" xmlns:xlink="http://www.w3.org/1999/xlink" x="0px" y="0px"
	 viewBox="0 0 250 250" style="enable-background:new 0 0 250 250;" xml:space="preserve">
<style type="text/css">
	.st0{fill:#FFFFFF;}
</style>
<g>
	<path class="st0" d="M113.2,158.4c-7.4,0-13.4,6-13.4,13.3s6,13.3,13.4,13.3s13.4-6,13.4-13.3S120.6,158.4,113.2,158.4z
		 M113.2,179.1c-4.1,0-7.4-3.3-7.4-7.4c0-4.1,3.3-7.4,7.4-7.4s7.4,3.3,7.4,7.4C120.7,175.8,117.3,179.1,113.2,179.1z"/>
	<path class="st0" d="M168.5,158.4c-7.4,0-13.4,6-13.4,13.3s6,13.3,13.4,13.3s13.4-6,13.4-13.3S175.9,158.4,168.5,158.4z
		 M168.5,179.1c-4.1,0-7.4-3.3-7.4-7.4c0-4.1,3.3-7.4,7.4-7.4c4.1,0,7.4,3.3,7.4,7.4S172.6,179.1,168.5,179.1z"/>
	<path class="st0" d="M170.3,150.3h-69.7c-1.5,0-2.8-0.6-3.8-1.6s-1.5-2.4-1.5-3.9c0.1-2.8,2.6-5.1,5.5-5.1h74.5
		c1.4,0,2.6-1,2.9-2.4l9.1-44.2c0.2-0.9,0-1.8-0.6-2.5s-1.4-1.1-2.3-1.1h-95L83.1,67c-0.4-1.3-1.5-2.2-2.9-2.2H65.5
		c-1.6,0-3,1.3-3,3c0,1.6,1.3,3,3,3h12.6L95.9,135c-3.7,1.8-6.3,5.4-6.5,9.7c-0.1,3.1,1,6,3.2,8.2c2.1,2.2,5,3.4,8.1,3.4h69.7
		c4.8,0,9.2,2.5,11.6,6.6c0.6,0.9,1.5,1.5,2.6,1.5c0.5,0,1-0.1,1.5-0.4c1.4-0.8,1.9-2.6,1-4.1C183.6,154,177.2,150.3,170.3,150.3z
		 M91.1,95.6h89.8l-7.9,38.3h-71.2L91.1,95.6z"/>
</g>
</svg>
